# xmcd
#
# Track frame offsets: 
#        150
#        11415
#        22472
#        33068
#        43104
#        55127
#        67110
#        77526
#        88042
#        100262
#        109413
#        121178
#        132423
#        143853
#        155208
#        166521
#        179095
#        189849
#        198910
#        212283
#        225260
#        235622
#        246957
#        259678
#        271425
#        280015
#        291889
#        302601
#        316188
#        327450
#
# Disc length: 4528 seconds
#
# Revision: 3
# Processed by: cddbd v1.5.2PL0 Copyright (c) Steve Scherf et al.
# Submitted via: ExactAudioCopyFreeDBPlugin 1.0
#
DISCID=a211ae1e
DTITLE=Various Artist - The Complete Goldwax Singles, 1962-1970
DYEAR=2009
DGENRE=Rhythm and Blues
TTITLE0=Jon Kennedy - Big Bad Jon The Twister
TTITLE1=Jon Kennedy - Pop-Eye Time
TTITLE2=Bobby McDowell - A Thousand Vows
TTITLE3=Bobby McDowell - A Gal Named Jo
TTITLE4=Oboe (Osbie McClinton) - Tradin' Stamps
TTITLE5=Oboe (Osbie McClinton) - Mother-in-Law Trouble
TTITLE6=The Lyrics - Darling
TTITLE7=The Lyrics - How a Woman Does Her Man
TTITLE8=Oboe (Osbie McClinton) - The Day the World Cried, Part 1
TTITLE9=Oboe (Osbie McClinton) - The Day the World Cried, Part 2
TTITLE10=Jeb Stuart - The Greasy Frog
TTITLE11=Jeb Stuart - Will I Ever Be Free
TTITLE12=Bobby McDowell - Our Last Quarrel
TTITLE13=Bobby McDowell - These Ain't Raindrops
TTITLE14=Oboe (Osbie McClinton) - Too Slow
TTITLE15=Oboe (Osbie McClinton) - She's Better Than You
TTITLE16=The Lyrics - The Side Wind
TTITLE17=The Lyrics - So Hard to Get Along
TTITLE18=O.V. Wright - That's How Strong My Love Is
TTITLE19=O.V. Wright - There Goes My Used to Be
TTITLE20=Eddie Bond - I Can't Fight This Much Longer
TTITLE21=Eddie Bond - Now and Then
TTITLE22=James Carr - Only Fools Run Away
TTITLE23=James Carr - You Don't Want Me
TTITLE24=Phillip and The Faithfuls - Love Me
TTITLE25=Phillip and The Faithfuls - Rhythm Marie
TTITLE26=The Playboy Five - Spoonful
TTITLE27=The Playboy Five - What Am I Living For
TTITLE28=The Ovations - Pretty Little Angel
TTITLE29=The Ovations - Won't You Call
EXTD=
EXTT0=
EXTT1=
EXTT2=
EXTT3=
EXTT4=
EXTT5=
EXTT6=
EXTT7=
EXTT8=
EXTT9=
EXTT10=
EXTT11=
EXTT12=
EXTT13=
EXTT14=
EXTT15=
EXTT16=
EXTT17=
EXTT18=
EXTT19=
EXTT20=
EXTT21=
EXTT22=
EXTT23=
EXTT24=
EXTT25=
EXTT26=
EXTT27=
EXTT28=
EXTT29=
PLAYORDER=
